<svg xmlns="http://www.w3.org/2000/svg" width="3861" height="2972" viewBox="0 0 3861 2972" fill="none"><g clip-path="url(#clip0_8_63)"><path d="M1930.41 2458.14C1394.2 2458.14 957.924 2021.87 957.924 1485.65C957.924 949.44 1394.2 513.167 1930.41 513.167C2466.63 513.167 2902.9 949.44 2902.9 1485.65C2902.9 2021.87 2466.63 2458.14 1930.41 2458.14ZM1930.41 789.756C1546.69 789.756 1234.51 1101.93 1234.51 1485.65C1234.51 1869.37 1546.69 2181.55 1930.41 2181.55C2314.13 2181.55 2626.31 1869.37 2626.31 1485.65C2626.31 1101.93 2314.13 789.756 1930.41 789.756Z" fill="url(#paint0_linear_8_63)"></path><path d="M3359.64 1117.97H501.183V1853.33H3359.64V1117.97Z" fill="url(#paint1_linear_8_63)"></path><path d="M2875.79 1919.53C2711.31 2277.43 2349.72 2525.63 1930.22 2525.63C1510.73 2525.63 1149.14 2277.43 984.841 1919.53H756.379C785.697 1977.8 832.902 2027.95 894.673 2060.77C939.112 2084.19 976.912 2117.57 1005.86 2157.39C1034.63 2197.22 1054.36 2243.32 1063.21 2292.92C1090.87 2451.13 1228.24 2563.06 1384.42 2563.06C1399.72 2563.06 1415.03 2561.95 1430.52 2559.92C1445.82 2557.71 1460.94 2556.79 1476.25 2556.79C1560.52 2556.79 1642.02 2589.24 1703.42 2648.62C1766.85 2709.84 1848.72 2740.44 1930.59 2740.44C2012.46 2740.44 2094.33 2709.84 2157.58 2648.62C2218.98 2589.24 2300.48 2556.79 2384.75 2556.79C2400.06 2556.79 2415.18 2557.9 2430.48 2559.92C2445.97 2562.14 2461.46 2563.06 2476.58 2563.06C2632.76 2563.06 2769.95 2451.13 2797.79 2292.92C2806.46 2243.32 2826.37 2197.22 2855.14 2157.39C2883.9 2117.57 2921.7 2084.38 2966.33 2060.77C3028.28 2027.95 3075.49 1977.8 3104.62 1919.53H2876.16H2875.79ZM2965.96 910.347C2921.52 886.929 2883.53 853.554 2854.77 813.725C2826 774.081 2806.09 727.798 2797.42 678.197C2769.76 519.988 2632.39 408.061 2476.21 408.061C2460.9 408.061 2445.6 409.168 2430.11 411.196C2330.35 425.21 2229.68 392.572 2157.39 322.503C2094.15 261.285 2012.28 230.676 1930.41 230.676C1848.54 230.676 1766.67 261.285 1703.24 322.503C1641.83 381.878 1560.33 414.331 1476.06 414.331C1460.76 414.331 1445.64 413.224 1430.33 411.196C1414.84 408.983 1399.36 408.061 1384.24 408.061C1228.06 408.061 1090.87 519.988 1063.02 678.197C1054.17 727.798 1034.44 774.081 1005.68 813.725C976.728 853.554 939.112 886.745 894.489 910.347C832.348 943.353 785.144 993.324 756.01 1051.78H984.472C1148.95 693.87 1510.54 445.493 1930.04 445.493C2349.53 445.493 2711.31 693.87 2875.6 1051.78H3104.25C3074.93 993.508 3027.73 943.353 2965.77 910.347H2965.96Z" fill="url(#paint2_linear_8_63)"></path><path d="M2459.95 2628.97L2459.97 2628.98L2460 2628.98C2476.58 2631.21 2492.99 2632.33 2509.21 2632.33C2676.9 2632.33 2824.25 2512.22 2854.1 2342.48L2854.1 2342.48C2863.21 2290.34 2883.99 2241.86 2914.24 2200.32C2944.5 2158.76 2984.05 2123.94 3030.71 2099.16C3105.58 2059.5 3160.04 1996.33 3190.1 1923.53H3345.8C3319.34 2022.96 3253.13 2111.2 3155.49 2163.07C3102.01 2191.21 3056.93 2231.08 3022.47 2278.58C2987.81 2326.09 2964.15 2381.24 2953.72 2440.67C2921.24 2625.7 2760.1 2757.1 2577.26 2757.1C2559.38 2757.1 2541.5 2755.82 2523.24 2753.26C2504.98 2750.66 2486.72 2749.35 2468.46 2749.35C2367.86 2749.35 2270.24 2788.29 2197.02 2859.27L2197.02 2859.27C2122.93 2931.17 2027.13 2967.12 1931.14 2967.12C1835.16 2967.12 1739.17 2930.99 1665.08 2859.27L1665.08 2859.27C1591.68 2788.29 1494.06 2749.35 1393.64 2749.35C1375.38 2749.35 1357.12 2750.66 1338.86 2753.26C1320.6 2755.82 1302.72 2757.1 1284.85 2757.1C1101.82 2757.1 940.866 2625.7 908.384 2440.67C897.951 2381.24 874.104 2326.09 839.641 2278.59L839.635 2278.58C804.99 2231.08 759.722 2191.21 706.62 2163.08C608.975 2111.2 542.759 2022.97 516.302 1923.53H671.261C701.15 1996.33 755.787 2059.51 830.655 2099.16C877.32 2123.95 916.868 2158.58 947.12 2200.31C977.375 2242.05 998.154 2290.53 1007.27 2342.48C1036.93 2512.22 1184.47 2632.33 1351.97 2632.33C1368.15 2632.33 1384.57 2631.4 1401.2 2628.98C1417.24 2626.79 1433.47 2625.7 1449.32 2625.7C1537.54 2625.7 1623.02 2659.78 1687.18 2721.75C1755.07 2787.4 1843.11 2820.23 1930.77 2820.23C2018.44 2820.23 2106.29 2787.4 2174.19 2721.75C2238.34 2659.78 2323.82 2625.7 2411.85 2625.7C2427.93 2625.7 2443.96 2626.61 2459.95 2628.97ZM3154.09 807.694L3154.01 808.039C3251.83 859.913 3318.05 948.328 3344.51 1047.78H3189.55C3159.66 974.782 3104.83 911.791 3029.97 871.965L3029.97 871.964C2983.31 847.177 2943.76 812.367 2913.51 770.809C2883.25 729.071 2862.47 680.589 2853.36 628.641L2849.42 629.332L2853.36 628.64C2823.51 458.903 2676.16 338.786 2508.48 338.786C2492.29 338.786 2475.87 339.716 2459.23 342.145C2354.8 357.09 2249.27 322.827 2173.45 249.376L2173.45 249.374C2105.56 183.72 2017.88 150.89 1930.04 150.89C1842.19 150.89 1754.33 183.718 1686.44 249.374C1622.28 311.34 1536.8 345.424 1448.59 345.424C1432.69 345.424 1416.48 344.51 1400.49 342.148L1400.47 342.144L1400.44 342.141C1383.86 339.905 1367.45 338.786 1351.23 338.786C1183.73 338.786 1036.37 458.904 1006.53 628.64L1006.53 628.648L1006.53 628.657C997.599 680.772 976.643 729.248 946.387 770.804C916.129 812.364 876.577 847.176 829.917 871.964L829.915 871.965C755.048 911.796 700.412 974.971 670.345 1047.78H515.378C541.834 948.158 608.054 859.916 705.884 808.039C759.163 779.908 804.434 740.226 838.901 692.718C873.557 645.205 897.215 589.872 907.646 530.638L907.647 530.636C940.128 345.419 1101.45 214.023 1284.29 214.023C1301.99 214.023 1320.05 215.3 1338.12 217.855C1356.38 220.463 1374.64 221.768 1392.9 221.768C1493.5 221.768 1591.13 182.831 1664.35 111.848L1664.35 111.847C1738.43 39.9492 1834.6 4 1930.41 4C2026.21 4 2122.19 40.1294 2196.28 111.85L2199.07 108.976L2196.28 111.851C2282.91 195.685 2403.26 234.81 2522.5 217.856C2540.57 215.3 2558.64 214.023 2576.33 214.023C2759.36 214.023 2920.5 345.418 2952.98 530.636L2952.98 530.638C2963.41 589.882 2987.26 645.211 3021.72 692.715L3021.73 692.724C3056.23 740.027 3101.09 779.58 3154.09 807.694Z" stroke="black" stroke-width="8"></path><path d="M2459.95 2628.97L2459.97 2628.98L2460 2628.98C2476.58 2631.21 2492.99 2632.33 2509.21 2632.33C2676.9 2632.33 2824.25 2512.22 2854.1 2342.48L2854.1 2342.48C2863.21 2290.34 2883.99 2241.86 2914.24 2200.32C2944.5 2158.76 2984.05 2123.94 3030.71 2099.16C3105.58 2059.5 3160.04 1996.33 3190.1 1923.53H3345.8C3319.34 2022.96 3253.13 2111.2 3155.49 2163.07C3102.01 2191.21 3056.93 2231.08 3022.47 2278.58C2987.81 2326.09 2964.15 2381.24 2953.72 2440.67C2921.24 2625.7 2760.1 2757.1 2577.26 2757.1C2559.38 2757.1 2541.5 2755.82 2523.24 2753.26C2504.98 2750.66 2486.72 2749.35 2468.46 2749.35C2367.86 2749.35 2270.24 2788.29 2197.02 2859.27L2197.02 2859.27C2122.93 2931.17 2027.13 2967.12 1931.14 2967.12C1835.16 2967.12 1739.17 2930.99 1665.08 2859.27L1665.08 2859.27C1591.68 2788.29 1494.06 2749.35 1393.64 2749.35C1375.38 2749.35 1357.12 2750.66 1338.86 2753.26C1320.6 2755.82 1302.72 2757.1 1284.85 2757.1C1101.82 2757.1 940.866 2625.7 908.384 2440.67C897.951 2381.24 874.104 2326.09 839.641 2278.59L839.635 2278.58C804.99 2231.08 759.722 2191.21 706.62 2163.08C608.975 2111.2 542.759 2022.97 516.302 1923.53H671.261C701.15 1996.33 755.787 2059.51 830.655 2099.16C877.32 2123.95 916.868 2158.58 947.12 2200.31C977.375 2242.05 998.154 2290.53 1007.27 2342.48C1036.93 2512.22 1184.47 2632.33 1351.97 2632.33C1368.15 2632.33 1384.57 2631.4 1401.2 2628.98C1417.24 2626.79 1433.47 2625.7 1449.32 2625.7C1537.54 2625.7 1623.02 2659.78 1687.18 2721.75C1755.07 2787.4 1843.11 2820.23 1930.77 2820.23C2018.44 2820.23 2106.29 2787.4 2174.19 2721.75C2238.34 2659.78 2323.82 2625.7 2411.85 2625.7C2427.93 2625.7 2443.96 2626.61 2459.95 2628.97ZM3154.09 807.694L3154.01 808.039C3251.83 859.913 3318.05 948.328 3344.51 1047.78H3189.55C3159.66 974.782 3104.83 911.791 3029.97 871.965L3029.97 871.964C2983.31 847.177 2943.76 812.367 2913.51 770.809C2883.25 729.071 2862.47 680.589 2853.36 628.641L2849.42 629.332L2853.36 628.64C2823.51 458.903 2676.16 338.786 2508.48 338.786C2492.29 338.786 2475.87 339.716 2459.23 342.145C2354.8 357.09 2249.27 322.827 2173.45 249.376L2173.45 249.374C2105.56 183.72 2017.88 150.89 1930.04 150.89C1842.19 150.89 1754.33 183.718 1686.44 249.374C1622.28 311.34 1536.8 345.424 1448.59 345.424C1432.69 345.424 1416.48 344.51 1400.49 342.148L1400.47 342.144L1400.44 342.141C1383.86 339.905 1367.45 338.786 1351.23 338.786C1183.73 338.786 1036.37 458.904 1006.53 628.64L1006.53 628.648L1006.53 628.657C997.599 680.772 976.643 729.248 946.387 770.804C916.129 812.364 876.577 847.176 829.917 871.964L829.915 871.965C755.048 911.796 700.412 974.971 670.345 1047.78H515.378C541.834 948.158 608.054 859.916 705.884 808.039C759.163 779.908 804.434 740.226 838.901 692.718C873.557 645.205 897.215 589.872 907.646 530.638L907.647 530.636C940.128 345.419 1101.45 214.023 1284.29 214.023C1301.99 214.023 1320.05 215.3 1338.12 217.855C1356.38 220.463 1374.64 221.768 1392.9 221.768C1493.5 221.768 1591.13 182.831 1664.35 111.848L1664.35 111.847C1738.43 39.9492 1834.6 4 1930.41 4C2026.21 4 2122.19 40.1294 2196.28 111.85L2199.07 108.976L2196.28 111.851C2282.91 195.685 2403.26 234.81 2522.5 217.856C2540.57 215.3 2558.64 214.023 2576.33 214.023C2759.36 214.023 2920.5 345.418 2952.98 530.636L2952.98 530.638C2963.41 589.882 2987.26 645.211 3021.72 692.715L3021.73 692.724C3056.23 740.027 3101.09 779.58 3154.09 807.694Z" stroke="url(#paint3_linear_8_63)" stroke-width="8"></path><path d="M431.479 1264.38V2000.48H0L282.49 1632.61L0 1264.38H431.479Z" fill="#FF8818"></path><path d="M3429.16 1264.38V2000.48H3860.63L3578.14 1632.61L3860.63 1264.38H3429.16Z" fill="#FF8818"></path><path d="M1930.4 567.562L1955.85 619.376L2013.01 627.674L1971.71 667.871L1981.48 724.849L1930.4 697.927L1879.14 724.849L1888.91 667.871L1847.61 627.674L1904.77 619.376L1930.4 567.562Z" fill="white"></path><path d="M1540.97 634.863L1566.6 686.678L1623.58 694.975L1582.27 735.173L1592.04 792.15L1540.97 765.229L1489.89 792.15L1499.66 735.173L1458.36 694.975L1515.34 686.678L1540.97 634.863Z" fill="white"></path><path d="M2319.66 634.863L2345.29 686.678L2402.27 694.975L2360.96 735.173L2370.73 792.15L2319.66 765.229L2268.58 792.15L2278.35 735.173L2237.05 694.975L2294.21 686.678L2319.66 634.863Z" fill="white"></path><path d="M924.65 1723.76L1111.62 1353.55V1350.76H892.094V1247.51H1245.56V1350.76L1057.67 1723.76H924.65Z" fill="#FCFCFC"></path><path d="M1615.71 1723.76H1432.47V1247.51H1613.85C1662.84 1247.51 1705.16 1257.05 1740.82 1276.11C1776.63 1295.03 1804.23 1322.31 1823.61 1357.97C1843.14 1393.47 1852.91 1436.03 1852.91 1485.64C1852.91 1535.25 1843.22 1577.88 1823.84 1613.54C1804.46 1649.04 1777.02 1676.32 1741.52 1695.39C1706.02 1714.3 1664.08 1723.76 1615.71 1723.76ZM1561.76 1614H1611.06C1634.63 1614 1654.7 1610.2 1671.29 1602.61C1688.03 1595.01 1700.75 1581.91 1709.43 1563.31C1718.26 1544.7 1722.68 1518.81 1722.68 1485.64C1722.68 1452.46 1718.19 1426.57 1709.2 1407.97C1700.36 1389.36 1687.34 1376.26 1670.13 1368.67C1653.07 1361.07 1632.15 1357.27 1607.34 1357.27H1561.76V1614Z" fill="#FCFCFC"></path><path d="M2042.02 1247.51V1723.76H1912.73V1247.51H2042.02Z" fill="#FCFCFC"></path><path d="M2227.01 1723.76H2087.49L2244.69 1247.51H2421.42L2578.62 1723.76H2439.09L2334.91 1378.67H2331.19L2227.01 1723.76ZM2200.97 1535.87H2463.28V1632.6H2200.97V1535.87Z" fill="#FCFCFC"></path><path d="M2862.67 1396.34C2861.43 1380.84 2855.62 1368.74 2845.23 1360.06C2835 1351.38 2819.42 1347.04 2798.49 1347.04C2785.16 1347.04 2774.23 1348.67 2765.7 1351.92C2757.33 1355.02 2751.13 1359.29 2747.1 1364.71C2743.07 1370.14 2740.97 1376.34 2740.82 1383.32C2740.51 1389.05 2741.52 1394.25 2743.84 1398.9C2746.32 1403.39 2750.2 1407.5 2755.47 1411.22C2760.74 1414.79 2767.48 1418.04 2775.7 1420.99C2783.92 1423.93 2793.68 1426.57 2805 1428.9L2844.07 1437.27C2870.42 1442.85 2892.98 1450.21 2911.74 1459.36C2930.5 1468.51 2945.85 1479.28 2957.78 1491.68C2969.72 1503.93 2978.48 1517.73 2984.06 1533.08C2989.8 1548.42 2992.74 1565.17 2992.9 1583.3C2992.74 1614.62 2984.91 1641.13 2969.41 1662.83C2953.91 1684.54 2931.74 1701.05 2902.9 1712.37C2874.22 1723.68 2839.73 1729.34 2799.42 1729.34C2758.03 1729.34 2721.91 1723.22 2691.05 1710.97C2660.36 1698.72 2636.48 1679.89 2619.43 1654.46C2602.53 1628.88 2594.01 1596.17 2593.85 1556.33H2716.63C2717.41 1570.9 2721.05 1583.15 2727.56 1593.07C2734.08 1602.99 2743.22 1610.51 2755 1615.63C2766.94 1620.74 2781.13 1623.3 2797.56 1623.3C2811.36 1623.3 2822.91 1621.6 2832.21 1618.19C2841.51 1614.78 2848.56 1610.05 2853.37 1604C2858.18 1597.96 2860.66 1591.06 2860.81 1583.3C2860.66 1576.02 2858.25 1569.66 2853.6 1564.24C2849.11 1558.66 2841.67 1553.69 2831.28 1549.35C2820.89 1544.86 2806.86 1540.67 2789.19 1536.8L2741.75 1526.56C2699.58 1517.42 2666.33 1502.15 2641.99 1480.75C2617.8 1459.2 2605.79 1429.83 2605.94 1392.62C2605.79 1362.39 2613.85 1335.96 2630.13 1313.32C2646.56 1290.53 2669.27 1272.78 2698.26 1260.07C2727.41 1247.36 2760.82 1241 2798.49 1241C2836.94 1241 2870.19 1247.43 2898.25 1260.3C2926.31 1273.17 2947.94 1291.31 2963.13 1314.72C2978.48 1337.97 2986.23 1365.18 2986.39 1396.34H2862.67Z" fill="#FCFCFC"></path><path d="M1396.04 2051.92L1433.48 2083.64C1461.87 2107.79 1466.11 2142.28 1443.62 2168.64C1421.31 2195.01 1386.64 2196.49 1358.24 2172.33L1320.81 2140.62L1396.04 2051.92ZM1366.73 2160.53C1388.67 2179.15 1414.11 2177.68 1430.89 2157.76C1447.67 2137.85 1445.09 2112.59 1423.15 2093.96L1399.18 2073.68L1342.57 2140.25L1366.54 2160.53H1366.73Z" fill="white"></path><path d="M1523.46 2268.95L1516.09 2281.31L1443.99 2237.79L1503.92 2138.4L1574.17 2180.63L1566.79 2192.98L1510.74 2159.24L1492.3 2189.85L1542.27 2219.9L1535.08 2231.89L1485.11 2201.83L1465.75 2233.92L1523.65 2268.77L1523.46 2268.95Z" fill="white"></path><path d="M1707.66 2294.58L1722.78 2299.56L1708.77 2342.71C1694.76 2348.43 1677.79 2348.06 1662.3 2343.08C1628.37 2332.01 1611.23 2300.11 1621.92 2267.29C1632.62 2234.65 1665.25 2218.98 1699.55 2230.04C1717.07 2235.76 1729.98 2246.46 1736.43 2261.02L1723.52 2267.66C1717.25 2255.86 1708.03 2248.48 1695.68 2244.43C1670.05 2236.13 1645.89 2247.93 1637.78 2272.46C1629.85 2296.8 1642.39 2320.95 1667.83 2329.25C1677.05 2332.38 1686.46 2333.12 1696.05 2330.54L1707.85 2294.58H1707.66Z" fill="white"></path><path d="M1832.68 2349.17L1771.65 2339.95L1754.68 2366.68L1737.72 2364.1L1807.05 2257.15L1823.28 2259.55L1858.13 2382.17L1840.98 2379.59L1832.68 2348.98V2349.17ZM1829 2335.15L1812.77 2275.22L1779.58 2327.78L1829.18 2335.34L1829 2335.15Z" fill="white"></path><path d="M1972.64 2382.35L1947.01 2347.14C1944.61 2347.32 1942.22 2347.5 1939.63 2347.5L1910.87 2348.06L1911.42 2383.46L1894.83 2383.83L1892.8 2267.66L1938.16 2266.92C1968.4 2266.37 1986.84 2281.31 1987.39 2306.57C1987.76 2324.45 1978.54 2337.55 1962.5 2343.63L1990.71 2382.17L1972.64 2382.54V2382.35ZM1970.8 2306.75C1970.61 2290.16 1959.18 2280.94 1937.97 2281.31L1909.76 2281.86L1910.68 2334.23L1938.9 2333.67C1960.1 2333.31 1971.16 2323.53 1970.8 2306.94V2306.75Z" fill="white"></path><path d="M2103.93 2336.99L2043.08 2347.32L2035.34 2378.11L2018.37 2380.88L2051.01 2257.52L2067.24 2254.75L2138.6 2360.6L2121.45 2363.55L2103.93 2336.99ZM2096 2324.82L2061.89 2272.83L2046.58 2333.12L2096 2324.82Z" fill="white"></path><path d="M2230.24 2207.73L2268.59 2317.45L2255.69 2321.87L2161.28 2263.05L2189.86 2344.92L2174.18 2350.45L2135.83 2240.74L2148.74 2236.31L2243.15 2295.14L2214.57 2213.27L2230.24 2207.73Z" fill="white"></path><path d="M2290.16 2193.72L2255.13 2212.53L2248.3 2199.81L2332.94 2154.45L2339.76 2167.17L2304.73 2185.98L2352.67 2275.59L2338.1 2283.34L2290.16 2193.72Z" fill="white"></path><path d="M2351.57 2140.8L2365.39 2131.58L2430.3 2227.83L2416.47 2237.05L2351.57 2140.8Z" fill="white"></path><path d="M2510.33 2127.34L2463.49 2167.72L2472.71 2198.15L2459.8 2209.4L2423.85 2086.96L2436.38 2076.26L2552.18 2129.92L2538.91 2141.35L2510.33 2127.71V2127.34ZM2497.23 2121.07L2441.18 2094.33L2459.43 2153.89L2497.42 2121.26L2497.23 2121.07Z" fill="white"></path></g><defs><linearGradient id="paint0_linear_8_63" x1="957.924" y1="1135.32" x2="2933.01" y2="1141.69" gradientUnits="userSpaceOnUse"><stop stop-color="#FF0121"></stop><stop offset="0.630208" stop-color="#FF7235"></stop><stop offset="1" stop-color="#FF9900"></stop></linearGradient><linearGradient id="paint1_linear_8_63" x1="501.183" y1="1353.19" x2="3403.47" y2="1389.58" gradientUnits="userSpaceOnUse"><stop stop-color="#FF0121"></stop><stop offset="0.630208" stop-color="#FF7235"></stop><stop offset="1" stop-color="#FF9900"></stop></linearGradient><linearGradient id="paint2_linear_8_63" x1="756.01" y1="1033.49" x2="3140.99" y2="1040.69" gradientUnits="userSpaceOnUse"><stop stop-color="#FF0121"></stop><stop offset="0.630208" stop-color="#FF7235"></stop><stop offset="1" stop-color="#FF9900"></stop></linearGradient><linearGradient id="paint3_linear_8_63" x1="510.213" y1="950.389" x2="3394.96" y2="959.285" gradientUnits="userSpaceOnUse"><stop stop-color="#FF0121"></stop><stop offset="0.630208" stop-color="#FF7235"></stop><stop offset="1" stop-color="#FF9900"></stop></linearGradient><clipPath id="clip0_8_63"><rect width="3860.63" height="2971.12" fill="white"></rect></clipPath></defs></svg>